<?xml version="1.0" standalone="no"?>
<!DOCTYPE svg PUBLIC "-//W3C//DTD SVG 20010904//EN"
 "http://www.w3.org/TR/2001/REC-SVG-20010904/DTD/svg10.dtd">
<svg version="1.0" xmlns="http://www.w3.org/2000/svg"
 width="254.000000pt" height="86.000000pt" viewBox="0 0 254.000000 86.000000"
 preserveAspectRatio="xMidYMid meet">

<g transform="translate(0.000000,86.000000) scale(0.100000,-0.100000)"
fill="#000000" stroke="none">
<path d="M174 744 c-16 -8 -39 -29 -50 -47 -17 -29 -19 -52 -19 -252 0 -200 2
-223 19 -252 11 -18 33 -37 48 -44 37 -15 114 -6 146 18 53 40 67 69 71 155 3
81 3 81 -20 75 -13 -4 -34 -7 -46 -7 -21 0 -23 -5 -23 -47 0 -63 -18 -97 -53
-101 -40 -5 -47 26 -47 213 0 189 6 215 49 215 36 0 51 -22 51 -74 0 -36 0
-36 45 -36 l45 0 0 50 c0 62 -21 105 -63 130 -39 24 -109 26 -153 4z"/>
<path d="M440 465 l0 -285 34 0 c70 0 66 -17 66 291 l0 279 -50 0 -50 0 0
-285z"/>
<path d="M610 472 l0 -277 45 3 45 4 1 187 0 186 34 -110 c18 -60 42 -143 54
-182 l22 -73 49 0 50 0 0 270 0 270 -45 0 -45 0 -1 -142 c0 -93 -4 -134 -9
-118 -5 14 -25 78 -45 143 l-36 117 -59 0 -60 0 0 -278z"/>
<path d="M970 485 l0 -265 136 0 135 0 -3 42 -3 43 -80 1 -80 0 -3 77 -3 77
66 0 65 0 0 40 0 40 -65 0 -66 0 3 68 3 67 83 3 82 3 0 34 0 35 -135 0 -135 0
0 -265z"/>
<path d="M1290 485 l0 -265 45 0 45 0 1 168 1 167 31 -167 31 -168 46 0 47 0
30 178 31 177 1 -176 c1 -193 0 -189 62 -189 l29 0 0 270 0 270 -68 0 -68 0
-29 -177 -30 -177 -11 55 c-7 30 -22 109 -34 177 l-23 122 -68 0 -69 0 0 -265z"/>
<path d="M1825 738 c-5 -17 -94 -523 -92 -524 1 -1 21 -4 44 -8 46 -7 41 -13
58 69 5 23 10 25 60 25 l54 0 6 -37 c4 -21 7 -45 8 -53 2 -9 20 -18 50 -24 26
-4 50 -7 52 -5 3 4 -77 492 -90 547 -5 20 -11 22 -76 22 -47 0 -71 -4 -74 -12z
m72 -356 c-21 -2 -40 -2 -42 0 -2 2 6 61 18 133 l21 130 21 -130 21 -130 -39
-3z"/>
<path d="M2101 723 c6 -16 29 -77 50 -138 l40 -109 -52 -144 c-28 -79 -49
-146 -46 -148 3 -3 23 -8 45 -11 l40 -5 38 113 38 114 33 -105 c18 -58 33
-110 33 -117 0 -7 8 -16 18 -21 26 -14 92 -22 92 -12 0 5 -23 80 -51 167 l-51
158 46 135 c25 74 46 138 46 143 0 13 -90 8 -91 -5 0 -7 -15 -53 -33 -103
l-33 -90 -34 103 -33 102 -53 0 -53 0 11 -27z"/>
</g>
</svg>
